<svg id="Layer_5" enable-background="new 0 0 64 64" height="512" viewBox="0 0 64 64" width="512" xmlns="http://www.w3.org/2000/svg"><g><g><g><path d="m50 55v4c0 1.66-5.37 3-12 3s-12-1.34-12-3v-4c0 1.66 5.37 3 12 3s12-1.34 12-3z" fill="#969faa"/></g><g><path d="m44 52.4c3.59.52 6 1.49 6 2.6 0 1.66-5.37 3-12 3s-12-1.34-12-3c0-1.11 2.41-2.08 6-2.6v1.6h12z" fill="#969faa"/></g><g><path d="m44 52.4v1.6h-12v-1.6-4.4h12z" fill="#aab2bd"/></g><g><path d="m62 40v4c0 2.21-1.79 4-4 4h-14-12-14c-2.21 0-4-1.79-4-4v-4h8 6 20 6z" fill="#ccd1d9"/></g><g><path d="m22 34v6h-8v-19.28l1.54-1.13 6.46 4.89v5.52z" fill="#69d6f4"/></g><g><path d="m62 20v20h-8v-6-4-4-4-4-2h4c2.21 0 4 1.79 4 4z" fill="#69d6f4"/></g><g><path d="m48 30.5v9.5h-20v-9.5-9.5-9.5-9.5h20v9.5 9.5z" fill="#e6e9ed"/></g><g><path d="m48 6h6v4h-6z" fill="#d3a06c"/></g><g><path d="m54 16v2h-6v-4h6z" fill="#d3a06c"/></g><g><path d="m48 22h6v4h-6z" fill="#d3a06c"/></g><g><path d="m48 30h6v4h-6z" fill="#d3a06c"/></g><g><path d="m22 30h6v4h-6z" fill="#d3a06c"/></g><g><path d="m28 14v4h-6v-3.14-.86z" fill="#d3a06c"/></g><g><path d="m28 6v4h-6v-.49-3.51z" fill="#d3a06c"/></g><g><path d="m22 2h6v4h-6z" fill="#cf9e76"/></g><g><path d="m22 10h6v4h-6z" fill="#cf9e76"/></g><g><path d="m28 18v5.53l-6-4.39v-1.14z" fill="#cf9e76"/></g><g><path d="m28 26v4h-6v-5.52l2 1.52z" fill="#cf9e76"/></g><g><path d="m22 34h6v6h-6z" fill="#cf9e76"/></g><g><path d="m48 34h6v6h-6z" fill="#cf9e76"/></g><g><path d="m48 26h6v4h-6z" fill="#cf9e76"/></g><g><path d="m48 18h6v4h-6z" fill="#cf9e76"/></g><g><path d="m48 10h6v4h-6z" fill="#cf9e76"/></g><g><path d="m48 2h6v4h-6z" fill="#cf9e76"/></g><g><path d="m30 25v1h-2-4l-2-1.52-6.46-4.89-3.42-2.59-4.45-3.38c1.28-.58 2.2-1.82 2.31-3.29l5.56 4.08h.01l3.53 2.59 2.92 2.14 6 4.39z" fill="#ffeaa7"/></g><g><path d="m12.12 17 3.42 2.59-1.54 1.13-4.02 2.95c-.11-1.47-1.03-2.71-2.31-3.29z" fill="#ffeaa7"/></g><g><path d="m22 14v.86l-2.92 2.14-3.53-2.59 6.45-4.9v.49z" fill="#ffeaa7"/></g><g><path d="m41.11 24.55c.54.28.89.84.89 1.45s-.35 1.17-.89 1.45l-4.77 2.38c-.22.11-.47.17-.72.17-.9 0-1.62-.72-1.62-1.62v-4.76c0-.9.72-1.62 1.62-1.62.25 0 .5.06.72.17z" fill="#ff826e"/></g><g><path d="m41.11 8.55c.54.28.89.84.89 1.45s-.35 1.17-.89 1.45l-4.77 2.38c-.22.11-.47.17-.72.17-.9 0-1.62-.72-1.62-1.62v-4.76c0-.9.72-1.62 1.62-1.62.25 0 .5.06.72.17z" fill="#ff826e"/></g></g><g><path d="m58 15h-3v-14h-34v8.018l-5.467 4.143-4.55-3.334c-.094-2.675-2.285-4.827-4.983-4.827-2.757 0-5 2.243-5 5s2.243 5 5 5c.524 0 1.02-.104 1.495-.254l2.974 2.254-2.974 2.254c-.475-.15-.971-.254-1.495-.254-2.757 0-5 2.243-5 5s2.243 5 5 5c2.698 0 4.89-2.153 4.983-4.829l2.017-1.478v21.307c0 2.757 2.243 5 5 5h13v2.558c-3.965.682-6 1.834-6 3.442v4c0 3.157 8.171 4 13 4s13-.843 13-4v-4c0-1.608-2.035-2.76-6-3.442v-2.558h13c2.757 0 5-2.243 5-5v-24c0-2.757-2.243-5-5-5zm0 2c1.654 0 3 1.346 3 3v19h-6v-22zm-34.336 10h3.336v2h-4v-2.503zm29.336-14h-4v-2h4zm-30 18h4v2h-4zm6-4h2v-2.507l-2-1.465v-4.028h18v14h-18zm-6-16h4v2h-4zm4 4v2h-4v-2zm26 14h-4v-2h4zm0-4h-4v-2h4zm0-4h-4v-2h4zm-4 10h4v2h-4zm4-14h-4v-2h4zm0-8h-4v-2h4zm-6 8h-18v-14h18zm-20-8h-4v-2h4zm-6 8.167-.229-.167.229-.168zm6 1.833v2.563l-3.498-2.563zm-4 16h4v4h-4zm6 0h18v4h-18zm20 0h4v4h-4zm4-30h-4v-2h4zm-26-2v2h-4v-2zm-6 8.527v2.826l-1.92 1.406-1.863-1.365zm-18-1.527c0-1.654 1.346-3 3-3s3 1.346 3 3-1.346 3-3 3-3-1.346-3-3zm7.573 2.006 17.735 12.994h-3.972l-14.959-11.337c.503-.464.916-1.022 1.196-1.657zm1.552 6.249 1.745 1.323-3.298 2.416c-.28-.635-.692-1.192-1.195-1.656zm-6.125 8.745c-1.654 0-3-1.346-3-3s1.346-3 3-3 3 1.346 3 3-1.346 3-3 3zm9.533-6.162 5.467 4.143v14.019h-6v-17.772zm22.467 40.162c-6.675 0-10.658-1.328-11-2v-1.696c2.729 1.292 7.662 1.696 11 1.696 3.341 0 8.28-.405 11.007-1.7l.005 1.629c-.354.743-4.337 2.071-11.012 2.071zm10.966-5.996c-.572.754-4.509 1.996-10.966 1.996s-10.394-1.242-10.966-1.996c.241-.283 1.292-.925 3.966-1.424v1.42h14v-1.42c2.674.498 3.725 1.141 3.966 1.424zm-5.966-2.004h-10v-4h10zm15-6h-40c-1.654 0-3-1.346-3-3v-3h46v3c0 1.654-1.346 3-3 3z"/><path d="m48 43h2v2h-2z"/><path d="m52 43h2v2h-2z"/><path d="m56 43h2v2h-2z"/><path d="m35.618 15c.404 0 .809-.096 1.171-.276l4.764-2.382c.892-.447 1.447-1.344 1.447-2.342s-.555-1.895-1.447-2.342l-4.764-2.382c-.362-.18-.767-.276-1.171-.276-1.444 0-2.618 1.175-2.618 2.618v4.764c0 1.443 1.174 2.618 2.618 2.618zm-.618-7.382c0-.341.277-.618.618-.618.095 0 .191.022.276.065l4.763 2.382c.212.106.343.318.343.553s-.131.447-.342.553l-4.764 2.382c-.391.196-.894-.118-.894-.553z"/><path d="m41.553 23.658-4.764-2.382c-.362-.18-.767-.276-1.171-.276-1.444 0-2.618 1.175-2.618 2.618v4.764c0 1.443 1.174 2.618 2.618 2.618.404 0 .809-.096 1.171-.276l4.764-2.382c.892-.447 1.447-1.344 1.447-2.342s-.555-1.895-1.447-2.342zm-.895 2.895-4.764 2.382c-.391.198-.894-.117-.894-.553v-4.764c0-.341.277-.618.618-.618.095 0 .191.022.276.065l4.763 2.382c.212.106.343.318.343.553s-.131.447-.342.553z"/></g></g></svg>