<svg id="Capa_1" enable-background="new 0 0 512 512" height="512" viewBox="0 0 512 512" width="512" xmlns="http://www.w3.org/2000/svg"><g><g><g><path d="m280.85 496.217c0 4.575-3.709 8.283-8.283 8.283h-33.133c-4.575 0-8.283-3.709-8.283-8.283v-112.49h49.7v112.49z" fill="#d2a677"/><path d="m257.85 383.726v112.49c0 4.575-3.709 8.283-8.283 8.283h23c4.575 0 8.283-3.709 8.283-8.283v-112.49z" fill="#b38a68"/><path d="m400.617 471.367h-289.235l9.483-33.134h270.27z" fill="#b38a68"/><path d="m140.033 388.727v-5h-49.7v5l-30.11 105.211c-1.515 5.292 2.459 10.562 7.964 10.562h32.468c3.697 0 6.946-2.45 7.964-6.004z" fill="#d2a677"/><path d="m117.033 383.726v5l-31.415 109.77c-1.017 3.554-4.267 6.004-7.964 6.004h23c3.697 0 6.946-2.45 7.964-6.004l31.415-109.77v-5z" fill="#b38a68"/><path d="m371.967 388.727v-4h49.7v4l30.11 105.211c1.515 5.292-2.459 10.562-7.964 10.562h-32.468c-3.697 0-6.946-2.45-7.964-6.004z" fill="#d2a677"/><path d="m451.777 493.938-30.111-105.211v-4h-23v4l30.111 105.211c1.515 5.292-2.459 10.562-7.964 10.562h23c5.505 0 9.479-5.27 7.964-10.562z" fill="#b38a68"/><g><path d="m463.083 375.533h-414.166c-4.575 0-8.283-3.709-8.283-8.283v-331.617h430.733v331.617c0 4.575-3.709 8.283-8.284 8.283z" fill="#edf6ff"/><path d="m448.366 35.633v331.617c0 4.575-3.708 8.284-8.283 8.284h23c4.575 0 8.283-3.709 8.283-8.284v-331.617z" fill="#d8e2f3"/></g><path d="m479.933 40.633h-447.866c-4.418 0-8-3.582-8-8v-17.133c0-4.418 3.582-8 8-8h447.867c4.418 0 8 3.582 8 8v17.133c-.001 4.419-3.582 8-8.001 8z" fill="#817d84"/><path d="m479.933 7.5h-23c4.418 0 8 3.582 8 8v17.133c0 4.418-3.582 8-8 8h23c4.418 0 8-3.582 8-8v-17.133c0-4.418-3.582-8-8-8z" fill="#756e79"/><path d="m479.933 388.533h-447.866c-4.418 0-8-3.582-8-8v-17.133c0-4.418 3.582-8 8-8h447.867c4.418 0 8 3.582 8 8v17.133c-.001 4.419-3.582 8-8.001 8z" fill="#817d84"/><path d="m479.933 355.4h-23c4.418 0 8 3.582 8 8v17.133c0 4.418-3.582 8-8 8h23c4.418 0 8-3.582 8-8v-17.133c0-4.418-3.582-8-8-8z" fill="#756e79"/></g></g><g><path d="m479.934 48.133c8.547 0 15.5-6.953 15.5-15.5v-17.133c0-8.547-6.953-15.5-15.5-15.5h-447.868c-8.547 0-15.5 6.953-15.5 15.5v17.133c0 8.547 6.953 15.5 15.5 15.5h1.066v43.767c0 4.142 3.357 7.5 7.5 7.5s7.5-3.358 7.5-7.5v-43.767h415.734v299.767h-415.733v-226c0-4.142-3.357-7.5-7.5-7.5s-7.5 3.358-7.5 7.5v226h-1.066c-8.547 0-15.5 6.953-15.5 15.5v17.133c0 8.547 6.953 15.5 15.5 15.5h48.373l-27.429 95.841c-1.375 4.806-.438 9.853 2.572 13.844 3.01 3.992 7.603 6.282 12.603 6.282h32.468c7.008 0 13.248-4.705 15.175-11.441l6.208-21.692h101.613v17.35c0 8.703 7.08 15.783 15.783 15.783h33.133c8.703 0 15.783-7.08 15.783-15.783v-17.35h101.613l6.208 21.691c1.927 6.737 8.167 11.442 15.175 11.442h32.468c5 0 9.593-2.29 12.602-6.282 3.01-3.992 3.947-9.038 2.572-13.844l-27.429-95.841h48.374c8.547 0 15.5-6.953 15.5-15.5v-17.133c0-8.547-6.953-15.5-15.5-15.5h-1.066v-299.767zm-379.28 448.867h-32.467c-.097 0-.391 0-.626-.312-.234-.311-.154-.594-.127-.687l28.554-99.775h34.099l-28.679 100.207c-.096.334-.406.567-.754.567zm172.696-.783c0 .432-.352.783-.783.783h-33.133c-.432 0-.783-.352-.783-.783v-17.35h34.699zm-147.02-32.35 5.19-18.133h248.96l5.189 18.133zm147.02-67.641v34.507h-34.7v-34.507zm171.09 100.462c-.236.312-.53.312-.626.312h-32.468c-.348 0-.657-.233-.753-.568l-28.679-100.206h34.099l28.554 99.775c.027.093.107.375-.127.687zm-68.252-65.955h-87.838v-34.7h77.907zm104.246-67.333v17.133c0 .276-.225.5-.5.5h-289.633c-4.143 0-7.5 3.358-7.5 7.5s3.357 7.5 7.5 7.5h33.35v34.7h-87.838l9.931-34.7h14.556c4.143 0 7.5-3.358 7.5-7.5s-3.357-7.5-7.5-7.5h-128.234c-.275 0-.5-.224-.5-.5v-17.133c0-.276.225-.5.5-.5h447.867c.276 0 .501.224.501.5zm-448.368-330.267c-.275 0-.5-.224-.5-.5v-17.133c0-.276.225-.5.5-.5h447.867c.275 0 .5.224.5.5v17.133c0 .276-.225.5-.5.5z"/><path d="m115.967 305.7c0 13.271 10.796 24.066 24.066 24.066s24.067-10.795 24.067-24.066c0-13.27-10.796-24.067-24.066-24.067s-24.067 10.797-24.067 24.067zm24.066-9.067c4.999 0 9.066 4.067 9.066 9.067 0 4.999-4.067 9.066-9.066 9.066s-9.066-4.067-9.066-9.066 4.067-9.067 9.066-9.067z"/><path d="m371.967 114.986c13.271 0 24.066-10.796 24.066-24.067 0-13.27-10.796-24.066-24.066-24.066s-24.067 10.795-24.067 24.066 10.796 24.067 24.067 24.067zm0-33.133c4.999 0 9.066 4.067 9.066 9.066 0 5-4.067 9.067-9.066 9.067s-9.066-4.067-9.066-9.067c-.001-4.999 4.067-9.066 9.066-9.066z"/><path d="m132.533 256c0 4.142 3.357 7.5 7.5 7.5s7.5-3.358 7.5-7.5v-16.567c0-4.142-3.357-7.5-7.5-7.5s-7.5 3.358-7.5 7.5z"/><path d="m140.033 213.8c4.143 0 7.5-3.358 7.5-7.5v-16.566c0-4.142-3.357-7.5-7.5-7.5s-7.5 3.358-7.5 7.5v16.566c0 4.142 3.358 7.5 7.5 7.5z"/><path d="m118.163 161.903c1.465 1.464 3.385 2.197 5.304 2.197s3.839-.732 5.304-2.197l11.263-11.263 11.263 11.263c1.465 1.465 3.384 2.197 5.304 2.197 1.919 0 3.839-.732 5.304-2.197 2.929-2.929 2.929-7.678 0-10.606l-11.263-11.263 11.263-11.263c2.929-2.929 2.929-7.678 0-10.606-2.93-2.929-7.678-2.929-10.607 0l-11.263 11.263-11.263-11.263c-2.929-2.929-7.677-2.93-10.607 0-2.929 2.929-2.929 7.678 0 10.606l11.263 11.263-11.263 11.263c-2.931 2.929-2.931 7.678-.002 10.606z"/><path d="m261.304 225.847c-2.93-2.929-7.678-2.929-10.607 0l-11.263 11.263-11.263-11.263c-2.929-2.929-7.677-2.93-10.607 0-2.929 2.929-2.929 7.678 0 10.606l11.263 11.264-11.263 11.263c-2.929 2.929-2.929 7.678 0 10.606 1.465 1.464 3.385 2.197 5.304 2.197s3.839-.732 5.304-2.197l11.263-11.263 11.263 11.263c1.465 1.465 3.384 2.197 5.304 2.197 1.919 0 3.839-.732 5.304-2.197 2.929-2.929 2.929-7.678 0-10.606l-11.263-11.263 11.263-11.264c2.926-2.929 2.926-7.678-.002-10.606z"/><path d="m393.837 225.847c-2.93-2.929-7.678-2.929-10.607 0l-11.263 11.263-11.263-11.263c-2.929-2.929-7.677-2.93-10.607 0-2.929 2.929-2.929 7.678 0 10.606l11.263 11.264-11.263 11.263c-2.929 2.929-2.929 7.678 0 10.606 1.465 1.464 3.385 2.197 5.304 2.197s3.839-.732 5.304-2.197l11.263-11.263 11.263 11.263c1.465 1.465 3.384 2.197 5.304 2.197 1.919 0 3.839-.732 5.304-2.197 2.929-2.929 2.929-7.678 0-10.606l-11.263-11.263 11.263-11.264c2.927-2.929 2.927-7.678-.002-10.606z"/><path d="m173.167 182.233c-4.143 0-7.5 3.358-7.5 7.5s3.357 7.5 7.5 7.5h198.8c4.143 0 7.5-3.358 7.5-7.5v-31.989l3.763 3.763c1.465 1.464 3.385 2.197 5.304 2.197s3.839-.732 5.304-2.197c2.929-2.929 2.929-7.678 0-10.606l-16.566-16.566c-2.93-2.929-7.678-2.929-10.607 0l-16.568 16.565c-2.929 2.929-2.929 7.678 0 10.606 2.93 2.929 7.678 2.929 10.607 0l3.763-3.763v24.489h-191.3z"/></g></g></svg>